<svg width="159" height="24" viewBox="0 0 159 24" fill="none" xmlns="http://www.w3.org/2000/svg">
<path fill-rule="evenodd" clip-rule="evenodd" d="M6.59218 7.76471H5.6931C2.54889 7.76471 0 10.3088 0 13.4471V18.3177C0 21.4559 2.54889 24 5.6931 24H10.5729C13.7171 24 16.266 21.4559 16.266 18.3177V17.9543C10.9038 17.8602 6.58596 13.4922 6.58596 8.11765C6.58596 7.9995 6.58804 7.88185 6.59218 7.76471ZM8.31735 7.76471C8.31233 7.88173 8.3098 7.99939 8.3098 8.11765C8.3098 12.5419 11.8559 16.1395 16.266 16.2334V13.4471C16.266 10.3088 13.7171 7.76471 10.5729 7.76471H8.31735Z" fill="#1854FF"/>
<path d="M24.5758 8.11765C24.5758 12.6009 20.9345 16.2353 16.4428 16.2353C11.9511 16.2353 8.30981 12.6009 8.30981 8.11765C8.30981 3.63439 11.9511 0 16.4428 0C20.9345 0 24.5758 3.63439 24.5758 8.11765Z" fill="#A9BEFD"/>
<path fill-rule="evenodd" clip-rule="evenodd" d="M16.267 16.2334V13.4471C16.267 10.3088 13.7181 7.76471 10.5739 7.76471H8.31834C8.31332 7.88173 8.31079 7.9994 8.31079 8.11765C8.31079 12.5419 11.8569 16.1395 16.267 16.2334Z" fill="#4B79FE"/>
<path d="M33.5928 20.7223V5.63394H39.0413C39.8451 5.63394 40.5948 5.71108 41.2903 5.86536C42.0013 6.01964 42.6196 6.28191 43.1452 6.65217C43.6707 7.00701 44.088 7.48527 44.3972 8.08696C44.7063 8.68864 44.8609 9.43689 44.8609 10.3317C44.8609 11.4425 44.6136 12.3604 44.1189 13.0856C43.6398 13.7952 42.9906 14.3275 42.1714 14.6823L45.6028 20.7223H41.7772L38.879 15.284H37.001V20.7223H33.5928ZM37.001 12.5764H38.7631C39.6596 12.5764 40.3397 12.3913 40.8034 12.021C41.2826 11.6353 41.5222 11.0722 41.5222 10.3317C41.5222 9.59116 41.2826 9.07433 40.8034 8.78121C40.3397 8.48808 39.6596 8.34151 38.7631 8.34151H37.001V12.5764Z" fill="#1854FF"/>
<path d="M52.4545 21C51.6352 21 50.8701 20.8689 50.1591 20.6066C49.4481 20.3289 48.8298 19.9355 48.3043 19.4264C47.7787 18.9018 47.3691 18.2693 47.0754 17.5288C46.7818 16.7882 46.6349 15.9397 46.6349 14.9832C46.6349 14.0575 46.7895 13.2244 47.0986 12.4839C47.4078 11.7279 47.8096 11.0954 48.3043 10.5863C48.8143 10.0617 49.394 9.66059 50.0432 9.38289C50.6924 9.10519 51.3647 8.96634 52.0603 8.96634C52.8795 8.96634 53.5905 9.10519 54.1934 9.38289C54.8116 9.66059 55.3217 10.0463 55.7236 10.54C56.1409 11.0337 56.4501 11.6199 56.651 12.2987C56.852 12.9621 56.9524 13.6872 56.9524 14.4741C56.9524 14.7826 56.937 15.0757 56.906 15.3534C56.8751 15.6311 56.8442 15.8394 56.8133 15.9783H49.9272C50.0818 16.8114 50.4219 17.4285 50.9474 17.8296C51.4884 18.2153 52.1453 18.4081 52.9182 18.4081C53.7374 18.4081 54.5643 18.1536 55.399 17.6445L56.5351 19.7041C55.9477 20.1052 55.2908 20.4215 54.5643 20.6529C53.8533 20.8843 53.15 21 52.4545 21ZM49.9041 13.7335H54.0542C54.0542 13.0856 53.9074 12.561 53.6137 12.1599C53.32 11.7588 52.8254 11.5582 52.1299 11.5582C51.5889 11.5582 51.1097 11.7356 50.6924 12.0905C50.2905 12.4453 50.0277 12.993 49.9041 13.7335Z" fill="#1854FF"/>
<path d="M62.4376 21C61.8502 21 61.3556 20.9074 60.9537 20.7223C60.5518 20.5372 60.2272 20.2826 59.9799 19.9586C59.7481 19.6192 59.578 19.2181 59.4698 18.7553C59.3616 18.277 59.3075 17.7447 59.3075 17.1585V4.5H62.7158V17.2973C62.7158 17.6522 62.7776 17.899 62.9013 18.0379C63.0404 18.1767 63.1795 18.2461 63.3186 18.2461C63.3959 18.2461 63.4577 18.2461 63.5041 18.2461C63.5659 18.2461 63.6432 18.2307 63.736 18.1999L64.1533 20.7223C63.9678 20.7994 63.7282 20.8611 63.4345 20.9074C63.1563 20.9691 62.824 21 62.4376 21Z" fill="#1854FF"/>
<path d="M71.0888 21C70.2696 21 69.5045 20.8689 68.7935 20.6066C68.0824 20.3289 67.4642 19.9355 66.9386 19.4264C66.4131 18.9018 66.0035 18.2693 65.7098 17.5288C65.4161 16.7882 65.2693 15.9397 65.2693 14.9832C65.2693 14.0575 65.4238 13.2244 65.733 12.4839C66.0421 11.7279 66.444 11.0954 66.9386 10.5863C67.4487 10.0617 68.0283 9.66059 68.6775 9.38289C69.3267 9.10519 69.9991 8.96634 70.6947 8.96634C71.5139 8.96634 72.2249 9.10519 72.8277 9.38289C73.446 9.66059 73.9561 10.0463 74.3579 10.54C74.7753 11.0337 75.0844 11.6199 75.2854 12.2987C75.4863 12.9621 75.5868 13.6872 75.5868 14.4741C75.5868 14.7826 75.5713 15.0757 75.5404 15.3534C75.5095 15.6311 75.4786 15.8394 75.4477 15.9783H68.5616C68.7162 16.8114 69.0562 17.4285 69.5818 17.8296C70.1227 18.2153 70.7797 18.4081 71.5525 18.4081C72.3717 18.4081 73.1987 18.1536 74.0334 17.6445L75.1694 19.7041C74.5821 20.1052 73.9252 20.4215 73.1987 20.6529C72.4877 20.8843 71.7844 21 71.0888 21ZM68.5384 13.7335H72.6886C72.6886 13.0856 72.5418 12.561 72.2481 12.1599C71.9544 11.7588 71.4598 11.5582 70.7642 11.5582C70.2232 11.5582 69.7441 11.7356 69.3267 12.0905C68.9248 12.4453 68.6621 12.993 68.5384 13.7335Z" fill="#1854FF"/>
<path d="M80.4492 20.7223L76.5772 9.24404H80.0087L81.4925 14.6592C81.6471 15.23 81.7939 15.8163 81.933 16.418C82.0876 17.0042 82.2422 17.5982 82.3968 18.1999H82.4895C82.6286 17.5982 82.7677 17.0042 82.9068 16.418C83.0614 15.8163 83.216 15.23 83.3705 14.6592L84.8776 9.24404H88.1467L84.3907 20.7223H80.4492Z" fill="#1854FF"/>
<path d="M92.3875 21C91.862 21 91.3828 20.9074 90.95 20.7223C90.5327 20.5526 90.1771 20.3135 89.8835 20.0049C89.5898 19.6809 89.3579 19.3107 89.1879 18.8941C89.0333 18.4776 88.956 18.0224 88.956 17.5288C88.956 16.3254 89.4661 15.3843 90.4863 14.7055C91.5064 14.0266 93.1526 13.5715 95.4248 13.3401C95.3939 12.831 95.2393 12.4299 94.9611 12.1367C94.6983 11.8282 94.25 11.6739 93.6163 11.6739C93.1217 11.6739 92.6271 11.7665 92.1324 11.9516C91.6533 12.1367 91.1355 12.3913 90.579 12.7153L89.3502 10.4705C90.0921 10.0231 90.865 9.66059 91.6687 9.38289C92.488 9.10519 93.3535 8.96634 94.2655 8.96634C95.7494 8.96634 96.8777 9.3906 97.6506 10.2391C98.4389 11.0722 98.833 12.3759 98.833 14.1501V20.7223H96.0508L95.8189 19.5421H95.7262C95.2316 19.9741 94.7138 20.3289 94.1728 20.6066C93.6318 20.8689 93.0367 21 92.3875 21ZM93.5468 18.3619C93.9332 18.3619 94.2655 18.277 94.5437 18.1073C94.822 17.9376 95.1156 17.6985 95.4248 17.3899V15.3766C94.2191 15.5463 93.3845 15.7931 92.9207 16.1171C92.457 16.4411 92.2252 16.8268 92.2252 17.2742C92.2252 17.6445 92.3411 17.9222 92.573 18.1073C92.8203 18.277 93.1449 18.3619 93.5468 18.3619Z" fill="#1854FF"/>
<path d="M101.716 20.7223V9.24404H104.498L104.73 10.702H104.823C105.317 10.2391 105.858 9.83801 106.446 9.4986C107.033 9.14376 107.721 8.96634 108.509 8.96634C109.761 8.96634 110.666 9.37517 111.222 10.1928C111.794 11.0105 112.08 12.1445 112.08 13.5947V20.7223H108.672V14.0344C108.672 13.2013 108.556 12.6304 108.324 12.3219C108.107 12.0133 107.752 11.859 107.257 11.859C106.824 11.859 106.454 11.9593 106.144 12.1599C105.835 12.345 105.495 12.615 105.124 12.9698V20.7223H101.716Z" fill="#1854FF"/>
<path d="M119.992 21C119.188 21 118.439 20.8689 117.743 20.6066C117.063 20.3289 116.468 19.9355 115.958 19.4264C115.448 18.9173 115.046 18.2924 114.752 17.5519C114.459 16.7959 114.312 15.9397 114.312 14.9832C114.312 14.0266 114.474 13.1781 114.799 12.4376C115.123 11.6816 115.556 11.0491 116.097 10.54C116.654 10.0309 117.295 9.64516 118.021 9.38289C118.748 9.10519 119.505 8.96634 120.294 8.96634C121.005 8.96634 121.631 9.08205 122.172 9.31346C122.728 9.54488 123.223 9.83801 123.656 10.1928L122.056 12.3913C121.515 11.9439 120.997 11.7202 120.502 11.7202C119.668 11.7202 119.011 12.0133 118.532 12.5996C118.052 13.1858 117.813 13.9804 117.813 14.9832C117.813 15.986 118.052 16.7805 118.532 17.3668C119.026 17.953 119.644 18.2461 120.386 18.2461C120.757 18.2461 121.113 18.169 121.453 18.0147C121.808 17.845 122.141 17.6445 122.45 17.413L123.795 19.6346C123.223 20.1283 122.604 20.4832 121.94 20.6992C121.275 20.8997 120.626 21 119.992 21Z" fill="#1854FF"/>
<path d="M130.298 21C129.478 21 128.713 20.8689 128.002 20.6066C127.291 20.3289 126.673 19.9355 126.147 19.4264C125.622 18.9018 125.212 18.2693 124.919 17.5288C124.625 16.7882 124.478 15.9397 124.478 14.9832C124.478 14.0575 124.633 13.2244 124.942 12.4839C125.251 11.7279 125.653 11.0954 126.147 10.5863C126.657 10.0617 127.237 9.66059 127.886 9.38289C128.536 9.10519 129.208 8.96634 129.903 8.96634C130.723 8.96634 131.434 9.10519 132.037 9.38289C132.655 9.66059 133.165 10.0463 133.567 10.54C133.984 11.0337 134.293 11.6199 134.494 12.2987C134.695 12.9621 134.796 13.6872 134.796 14.4741C134.796 14.7826 134.78 15.0757 134.749 15.3534C134.718 15.6311 134.687 15.8394 134.656 15.9783H127.77C127.925 16.8114 128.265 17.4285 128.791 17.8296C129.332 18.2153 129.988 18.4081 130.761 18.4081C131.581 18.4081 132.407 18.1536 133.242 17.6445L134.378 19.7041C133.791 20.1052 133.134 20.4215 132.407 20.6529C131.696 20.8843 130.993 21 130.298 21ZM127.747 13.7335H131.897C131.897 13.0856 131.751 12.561 131.457 12.1599C131.163 11.7588 130.669 11.5582 129.973 11.5582C129.432 11.5582 128.953 11.7356 128.536 12.0905C128.134 12.4453 127.871 12.993 127.747 13.7335Z" fill="#1854FF"/>
<path d="M145.618 13.0856L145.247 14.4741H148.47L148.122 13.0856C147.906 12.3296 147.697 11.5273 147.496 10.6788C147.295 9.83029 147.094 9.01262 146.893 8.22581H146.8C146.615 9.02805 146.422 9.85344 146.221 10.702C146.035 11.5351 145.834 12.3296 145.618 13.0856ZM140.146 20.7223L144.876 5.63394H148.98L153.71 20.7223H150.093L149.165 17.1353H144.551L143.624 20.7223H140.146Z" fill="#1854FF"/>
<path d="M155.361 20.7223V5.63394H158.77V20.7223H155.361Z" fill="#1854FF"/>
<iframe xmlns="" id="foxclocks-statusbar-iframe" class="foxclocks-content" src="moz-extension://bca2a686-c7b5-c44e-932f-219aaae81cf6/html/statusbar.html?origin=https%3A%2F%2Frelevance.ai"/></svg>